<svg width="204" height="31" viewBox="0 0 204 31" fill="none" xmlns="http://www.w3.org/2000/svg">
<path d="M4.76213 31H1.30613C0.858125 31 0.698125 30.728 0.826125 30.184L9.17813 0.951998C9.33813 0.407999 9.72213 0.136 10.3301 0.136H15.1301C15.7701 0.136 16.1541 0.407999 16.2821 0.951998L24.6341 30.184C24.7621 30.728 24.5861 31 24.1061 31H20.6981C20.4101 31 20.2021 30.952 20.0741 30.856C19.9781 30.728 19.8981 30.504 19.8341 30.184L18.0101 23.944H7.45013L5.62613 30.184C5.49813 30.728 5.21013 31 4.76213 31ZM12.6341 4.744L8.41013 20.104H17.0981L12.8261 4.744H12.6341ZM43.395 0.136H46.419C46.963 0.136 47.235 0.391999 47.235 0.903998V23.56C47.235 25.896 46.579 27.72 45.267 29.032C43.955 30.344 42.131 31 39.795 31H34.995C32.627 31 30.787 30.344 29.475 29.032C28.163 27.72 27.507 25.896 27.507 23.56V19.24C27.507 18.696 27.795 18.424 28.371 18.424H31.395C31.939 18.424 32.211 18.696 32.211 19.24V23.368C32.211 25.736 33.363 26.92 35.667 26.92H39.075C41.379 26.92 42.531 25.736 42.531 23.368V0.951998C42.531 0.407999 42.819 0.136 43.395 0.136ZM55.6684 31H52.2124C51.7644 31 51.6044 30.728 51.7324 30.184L60.0844 0.951998C60.2444 0.407999 60.6284 0.136 61.2364 0.136H66.0364C66.6764 0.136 67.0604 0.407999 67.1884 0.951998L75.5404 30.184C75.6684 30.728 75.4924 31 75.0124 31H71.6044C71.3164 31 71.1084 30.952 70.9804 30.856C70.8844 30.728 70.8044 30.504 70.7404 30.184L68.9164 23.944H58.3564L56.5324 30.184C56.4044 30.728 56.1164 31 55.6684 31ZM63.5404 4.744L59.3164 20.104H68.0044L63.7324 4.744H63.5404ZM84.0773 31H81.1013C80.5573 31 80.2853 30.728 80.2853 30.184V0.951998C80.2853 0.407999 80.5573 0.136 81.1013 0.136H83.7893C84.3013 0.136 84.6533 0.311999 84.8453 0.663999L96.4613 21.544H96.6533V0.951998C96.6533 0.407999 96.9253 0.136 97.4693 0.136H100.445C100.989 0.136 101.261 0.407999 101.261 0.951998V30.184C101.261 30.728 100.989 31 100.445 31H97.8533C97.3413 31 96.9253 30.744 96.6053 30.232L85.0853 9.592H84.8933V30.184C84.8933 30.728 84.6213 31 84.0773 31ZM116.718 31H113.694C113.118 31 112.83 30.728 112.83 30.184V4.696C112.83 4.376 112.67 4.216 112.35 4.216H106.302C105.726 4.216 105.438 3.944 105.438 3.4V0.951998C105.438 0.407999 105.726 0.136 106.302 0.136H124.11C124.686 0.136 124.974 0.407999 124.974 0.951998V3.4C124.974 3.944 124.686 4.216 124.11 4.216H118.062C117.71 4.216 117.534 4.376 117.534 4.696V30.184C117.534 30.728 117.262 31 116.718 31ZM132.922 31H129.898C129.354 31 129.082 30.728 129.082 30.184V0.951998C129.082 0.407999 129.354 0.136 129.898 0.136H132.922C133.466 0.136 133.738 0.407999 133.738 0.951998V12.952C133.738 13.272 133.93 13.432 134.314 13.432H144.442C144.762 13.432 144.922 13.272 144.922 12.952V0.951998C144.922 0.407999 145.194 0.136 145.738 0.136H148.81C149.354 0.136 149.626 0.407999 149.626 0.951998V30.184C149.626 30.728 149.354 31 148.81 31H145.738C145.194 31 144.922 30.728 144.922 30.184V18.04C144.922 17.72 144.762 17.56 144.442 17.56H134.314C133.93 17.56 133.738 17.72 133.738 18.04V30.184C133.738 30.728 133.466 31 132.922 31ZM158.325 31H154.869C154.421 31 154.261 30.728 154.389 30.184L162.741 0.951998C162.901 0.407999 163.285 0.136 163.893 0.136H168.693C169.333 0.136 169.717 0.407999 169.845 0.951998L178.197 30.184C178.325 30.728 178.149 31 177.669 31H174.261C173.973 31 173.765 30.952 173.637 30.856C173.541 30.728 173.461 30.504 173.397 30.184L171.573 23.944H161.013L159.189 30.184C159.061 30.728 158.773 31 158.325 31ZM166.197 4.744L161.973 20.104H170.661L166.389 4.744H166.197ZM186.734 31H183.758C183.214 31 182.942 30.728 182.942 30.184V0.951998C182.942 0.407999 183.214 0.136 183.758 0.136H186.446C186.958 0.136 187.31 0.311999 187.502 0.663999L199.118 21.544H199.31V0.951998C199.31 0.407999 199.582 0.136 200.126 0.136H203.102C203.646 0.136 203.918 0.407999 203.918 0.951998V30.184C203.918 30.728 203.646 31 203.102 31H200.51C199.998 31 199.582 30.744 199.262 30.232L187.742 9.592H187.55V30.184C187.55 30.728 187.278 31 186.734 31Z" fill="url(#paint0_linear_1_4)"/>
<defs>
<linearGradient id="paint0_linear_1_4" x1="60" y1="40" x2="168" y2="40" gradientUnits="userSpaceOnUse">
<stop stop-color="#DC06FF"/>
<stop offset="0.364583" stop-color="#4706FF" stop-opacity="0.53125"/>
<stop offset="0.5625" stop-color="#065BFF" stop-opacity="0.286458"/>
<stop offset="0.84375" stop-color="#0695FA" stop-opacity="0.348097"/>
<stop offset="1" stop-color="#06FFF0" stop-opacity="0.46"/>
</linearGradient>
</defs>
</svg>
