<svg width="244" height="31" viewBox="0 0 244 31" fill="none" xmlns="http://www.w3.org/2000/svg">
<path d="M5.65888 31H1.67488C1.00288 31 0.666875 30.664 0.666875 29.992V1.144C0.666875 0.471999 1.00288 0.136 1.67488 0.136H5.27488C5.94688 0.136 6.39488 0.36 6.61888 0.808L16.3149 19H16.5069V1.144C16.5069 0.471999 16.8429 0.136 17.5149 0.136H21.4989C22.1709 0.136 22.5069 0.471999 22.5069 1.144V29.992C22.5069 30.664 22.1709 31 21.4989 31H17.9949C17.2909 31 16.7789 30.68 16.4589 30.04L6.85888 12.184H6.66688V29.992C6.66688 30.664 6.33088 31 5.65888 31Z" fill="white" fill-opacity="0.83"/>
<path d="M42.5079 31H37.8999C37.3239 31 37.1319 30.664 37.3239 29.992L44.9079 1.144C45.1319 0.471999 45.6119 0.136 46.3479 0.136H52.7319C53.5319 0.136 54.0119 0.471999 54.1719 1.144L61.7559 29.992C61.9479 30.664 61.7559 31 61.1799 31H56.5719C56.2199 31 55.9799 30.936 55.8519 30.808C55.7239 30.648 55.6279 30.376 55.5639 29.992L54.2199 24.712H44.8599L43.5159 29.992C43.4519 30.376 43.3399 30.648 43.1799 30.808C43.0519 30.936 42.8279 31 42.5079 31ZM49.4679 5.944L46.0119 19.816H53.1159L49.6599 5.944H49.4679ZM79.9786 0.136H84.0106C84.6826 0.136 85.0186 0.455999 85.0186 1.096V23.176C85.0186 25.672 84.3306 27.608 82.9546 28.984C81.5786 30.328 79.6426 31 77.1466 31H72.3466C69.8186 31 67.8666 30.328 66.4906 28.984C65.1146 27.64 64.4266 25.704 64.4266 23.176V18.664C64.4266 17.992 64.7626 17.656 65.4346 17.656H69.5146C70.1866 17.656 70.5226 17.992 70.5226 18.664V22.888C70.5226 23.912 70.7306 24.648 71.1466 25.096C71.5946 25.512 72.3146 25.72 73.3066 25.72H76.1386C77.1626 25.72 77.8826 25.512 78.2986 25.096C78.7146 24.648 78.9226 23.912 78.9226 22.888V1.144C78.9226 0.471999 79.2746 0.136 79.9786 0.136ZM94.2579 31H89.6499C89.0739 31 88.8819 30.664 89.0739 29.992L96.6579 1.144C96.8819 0.471999 97.3619 0.136 98.0979 0.136H104.482C105.282 0.136 105.762 0.471999 105.922 1.144L113.506 29.992C113.698 30.664 113.506 31 112.93 31H108.322C107.97 31 107.73 30.936 107.602 30.808C107.474 30.648 107.378 30.376 107.314 29.992L105.97 24.712H96.6099L95.2659 29.992C95.2019 30.376 95.0899 30.648 94.9299 30.808C94.8019 30.936 94.5779 31 94.2579 31ZM101.218 5.944L97.7619 19.816H104.866L101.41 5.944H101.218ZM122.753 31H118.769C118.097 31 117.761 30.664 117.761 29.992V1.144C117.761 0.471999 118.097 0.136 118.769 0.136H122.369C123.041 0.136 123.489 0.36 123.713 0.808L133.409 19H133.601V1.144C133.601 0.471999 133.937 0.136 134.609 0.136H138.593C139.265 0.136 139.601 0.471999 139.601 1.144V29.992C139.601 30.664 139.265 31 138.593 31H135.089C134.385 31 133.873 30.68 133.553 30.04L123.953 12.184H123.761V29.992C123.761 30.664 123.425 31 122.753 31ZM155.391 31H151.359C150.655 31 150.303 30.664 150.303 29.992V5.944C150.303 5.592 150.127 5.416 149.775 5.416H144.303C143.631 5.416 143.295 5.08 143.295 4.408V1.144C143.295 0.471999 143.631 0.136 144.303 0.136H162.447C163.119 0.136 163.455 0.471999 163.455 1.144V4.408C163.455 5.08 163.119 5.416 162.447 5.416H156.975C156.591 5.416 156.399 5.592 156.399 5.944V29.992C156.399 30.664 156.063 31 155.391 31ZM172.208 31H168.128C167.456 31 167.12 30.664 167.12 29.992V1.144C167.12 0.471999 167.456 0.136 168.128 0.136H172.208C172.88 0.136 173.216 0.471999 173.216 1.144V12.424C173.216 12.776 173.408 12.952 173.792 12.952H181.904C182.256 12.952 182.432 12.776 182.432 12.424V1.144C182.432 0.471999 182.768 0.136 183.44 0.136H187.52C188.192 0.136 188.528 0.471999 188.528 1.144V29.992C188.528 30.664 188.192 31 187.52 31H183.44C182.768 31 182.432 30.664 182.432 29.992V18.76C182.432 18.408 182.256 18.232 181.904 18.232H173.792C173.408 18.232 173.216 18.408 173.216 18.76V29.992C173.216 30.664 172.88 31 172.208 31ZM197.992 31H193.384C192.808 31 192.616 30.664 192.808 29.992L200.392 1.144C200.616 0.471999 201.096 0.136 201.832 0.136H208.216C209.016 0.136 209.496 0.471999 209.656 1.144L217.24 29.992C217.432 30.664 217.24 31 216.664 31H212.056C211.704 31 211.464 30.936 211.336 30.808C211.208 30.648 211.112 30.376 211.048 29.992L209.704 24.712H200.344L199 29.992C198.936 30.376 198.824 30.648 198.664 30.808C198.536 30.936 198.312 31 197.992 31ZM204.952 5.944L201.496 19.816H208.6L205.144 5.944H204.952ZM226.487 31H222.503C221.831 31 221.495 30.664 221.495 29.992V1.144C221.495 0.471999 221.831 0.136 222.503 0.136H226.103C226.775 0.136 227.223 0.36 227.447 0.808L237.143 19H237.335V1.144C237.335 0.471999 237.671 0.136 238.343 0.136H242.327C242.999 0.136 243.335 0.471999 243.335 1.144V29.992C243.335 30.664 242.999 31 242.327 31H238.823C238.119 31 237.607 30.68 237.287 30.04L227.687 12.184H227.495V29.992C227.495 30.664 227.159 31 226.487 31Z" fill="url(#paint0_linear_1_4)"/>
<defs>
<linearGradient id="paint0_linear_1_4" x1="53" y1="44" x2="206" y2="44.0001" gradientUnits="userSpaceOnUse">
<stop offset="0.261438" stop-color="#DC06FF"/>
<stop offset="0.46875" stop-color="#4706FF" stop-opacity="0.53125"/>
<stop offset="0.572917" stop-color="#0695FA" stop-opacity="0.348097"/>
<stop offset="0.686274" stop-color="#065BFF" stop-opacity="0.286458"/>
<stop offset="0.895833" stop-color="#06FFF0" stop-opacity="0.46"/>
</linearGradient>
</defs>
</svg>
